<mxfile host="app.diagrams.net" modified="2020-05-11T17:36:56.876Z" agent="5.0 (Windows NT 10.0; Win64; x64) AppleWebKit/537.36 (KHTML, like Gecko) Chrome/81.0.4044.138 Safari/537.36" etag="75_gYQ6C4DPAi5MTCfrg" version="13.0.9" type="github">
  <diagram id="uFMswRZj3fjWsmVmXxSW" name="Page-1">
    <mxGraphModel dx="782" dy="469" grid="1" gridSize="10" guides="1" tooltips="1" connect="1" arrows="1" fold="1" page="1" pageScale="1" pageWidth="827" pageHeight="1169" math="0" shadow="0">
      <root>
        <mxCell id="0" />
        <mxCell id="1" parent="0" />
        <mxCell id="Ii1de1Pnvcmps4-ZAxfa-1" value="" style="ellipse;html=1;shape=startState;fillColor=#000000;strokeColor=#ff0000;" vertex="1" parent="1">
          <mxGeometry x="370" y="20" width="30" height="30" as="geometry" />
        </mxCell>
        <mxCell id="Ii1de1Pnvcmps4-ZAxfa-2" value="" style="edgeStyle=orthogonalEdgeStyle;html=1;verticalAlign=bottom;endArrow=open;endSize=8;strokeColor=#ff0000;" edge="1" source="Ii1de1Pnvcmps4-ZAxfa-1" parent="1">
          <mxGeometry relative="1" as="geometry">
            <mxPoint x="385" y="110" as="targetPoint" />
          </mxGeometry>
        </mxCell>
        <mxCell id="Ii1de1Pnvcmps4-ZAxfa-3" value="Go to Dashboard/ Inventory" style="rounded=1;whiteSpace=wrap;html=1;arcSize=40;fontColor=#000000;fillColor=#ffffc0;strokeColor=#ff0000;" vertex="1" parent="1">
          <mxGeometry x="325" y="110" width="120" height="40" as="geometry" />
        </mxCell>
        <mxCell id="Ii1de1Pnvcmps4-ZAxfa-4" value="" style="edgeStyle=orthogonalEdgeStyle;html=1;verticalAlign=bottom;endArrow=open;endSize=8;strokeColor=#ff0000;" edge="1" source="Ii1de1Pnvcmps4-ZAxfa-3" parent="1">
          <mxGeometry relative="1" as="geometry">
            <mxPoint x="385" y="210" as="targetPoint" />
          </mxGeometry>
        </mxCell>
        <mxCell id="Ii1de1Pnvcmps4-ZAxfa-5" value="Go thorugh Modify to get to Expenses&#39; Page" style="rounded=1;whiteSpace=wrap;html=1;arcSize=40;fontColor=#000000;fillColor=#ffffc0;strokeColor=#ff0000;" vertex="1" parent="1">
          <mxGeometry x="325" y="210" width="125" height="50" as="geometry" />
        </mxCell>
        <mxCell id="Ii1de1Pnvcmps4-ZAxfa-7" value="" style="edgeStyle=orthogonalEdgeStyle;html=1;verticalAlign=bottom;endArrow=open;endSize=8;strokeColor=#ff0000;" edge="1" parent="1">
          <mxGeometry relative="1" as="geometry">
            <mxPoint x="388" y="330" as="targetPoint" />
            <mxPoint x="390" y="260" as="sourcePoint" />
            <Array as="points">
              <mxPoint x="388" y="260" />
              <mxPoint x="388" y="290" />
            </Array>
          </mxGeometry>
        </mxCell>
        <mxCell id="Ii1de1Pnvcmps4-ZAxfa-8" value="Select any Invoice to Modify" style="rounded=1;whiteSpace=wrap;html=1;arcSize=40;fontColor=#000000;fillColor=#ffffc0;strokeColor=#ff0000;" vertex="1" parent="1">
          <mxGeometry x="327.5" y="330" width="122.5" height="40" as="geometry" />
        </mxCell>
        <mxCell id="Ii1de1Pnvcmps4-ZAxfa-9" value="" style="edgeStyle=orthogonalEdgeStyle;html=1;verticalAlign=bottom;endArrow=open;endSize=8;strokeColor=#ff0000;" edge="1" source="Ii1de1Pnvcmps4-ZAxfa-8" parent="1">
          <mxGeometry relative="1" as="geometry">
            <mxPoint x="387.5" y="440" as="targetPoint" />
          </mxGeometry>
        </mxCell>
        <mxCell id="Ii1de1Pnvcmps4-ZAxfa-14" value="" style="rhombus;whiteSpace=wrap;html=1;fillColor=#ffffc0;strokeColor=#ff0000;" vertex="1" parent="1">
          <mxGeometry x="345" y="440" width="80" height="40" as="geometry" />
        </mxCell>
        <mxCell id="Ii1de1Pnvcmps4-ZAxfa-15" value="" style="edgeStyle=orthogonalEdgeStyle;html=1;align=left;verticalAlign=bottom;endArrow=open;endSize=8;strokeColor=#ff0000;" edge="1" source="Ii1de1Pnvcmps4-ZAxfa-14" parent="1" target="Ii1de1Pnvcmps4-ZAxfa-23">
          <mxGeometry x="-1" relative="1" as="geometry">
            <mxPoint x="520" y="460" as="targetPoint" />
          </mxGeometry>
        </mxCell>
        <mxCell id="Ii1de1Pnvcmps4-ZAxfa-16" value="" style="edgeStyle=orthogonalEdgeStyle;html=1;align=left;verticalAlign=top;endArrow=open;endSize=8;strokeColor=#ff0000;" edge="1" source="Ii1de1Pnvcmps4-ZAxfa-14" parent="1">
          <mxGeometry x="-1" relative="1" as="geometry">
            <mxPoint x="385" y="540" as="targetPoint" />
            <Array as="points">
              <mxPoint x="385" y="510" />
            </Array>
          </mxGeometry>
        </mxCell>
        <mxCell id="Ii1de1Pnvcmps4-ZAxfa-17" value="&lt;div style=&quot;text-align: left&quot;&gt;&lt;span style=&quot;font-size: 11px ; background-color: rgb(255 , 255 , 255)&quot;&gt;Save&amp;nbsp;&lt;/span&gt;&lt;/div&gt;&lt;div style=&quot;text-align: left&quot;&gt;&lt;span style=&quot;font-size: 11px ; background-color: rgb(255 , 255 , 255)&quot;&gt;Changes&lt;/span&gt;&lt;/div&gt;" style="text;html=1;align=center;verticalAlign=middle;resizable=0;points=[];autosize=1;" vertex="1" parent="1">
          <mxGeometry x="330" y="490" width="60" height="30" as="geometry" />
        </mxCell>
        <mxCell id="Ii1de1Pnvcmps4-ZAxfa-18" value="Cancel" style="text;html=1;align=center;verticalAlign=middle;resizable=0;points=[];autosize=1;" vertex="1" parent="1">
          <mxGeometry x="448" y="441" width="50" height="20" as="geometry" />
        </mxCell>
        <mxCell id="Ii1de1Pnvcmps4-ZAxfa-19" value="Invoice Information is Updated" style="rounded=1;whiteSpace=wrap;html=1;arcSize=40;fontColor=#000000;fillColor=#ffffc0;strokeColor=#ff0000;" vertex="1" parent="1">
          <mxGeometry x="327.5" y="540" width="120" height="40" as="geometry" />
        </mxCell>
        <mxCell id="Ii1de1Pnvcmps4-ZAxfa-20" value="" style="edgeStyle=orthogonalEdgeStyle;html=1;verticalAlign=bottom;endArrow=open;endSize=8;strokeColor=#ff0000;" edge="1" source="Ii1de1Pnvcmps4-ZAxfa-19" parent="1" target="Ii1de1Pnvcmps4-ZAxfa-26">
          <mxGeometry relative="1" as="geometry">
            <mxPoint x="388" y="640" as="targetPoint" />
            <Array as="points">
              <mxPoint x="388" y="620" />
              <mxPoint x="460" y="620" />
            </Array>
          </mxGeometry>
        </mxCell>
        <mxCell id="Ii1de1Pnvcmps4-ZAxfa-23" value="Invoice remains the same" style="rounded=1;whiteSpace=wrap;html=1;arcSize=40;fontColor=#000000;fillColor=#ffffc0;strokeColor=#ff0000;" vertex="1" parent="1">
          <mxGeometry x="520" y="440" width="120" height="40" as="geometry" />
        </mxCell>
        <mxCell id="Ii1de1Pnvcmps4-ZAxfa-24" value="&lt;span style=&quot;color: rgba(0 , 0 , 0 , 0) ; font-family: monospace ; font-size: 0px&quot;&gt;%3CmxGraphModel%3E%3Croot%3E%3CmxCell%20id%3D%220%22%2F%3E%3CmxCell%20id%3D%221%22%20parent%3D%220%22%2F%3E%3CmxCell%20id%3D%222%22%20value%3D%22%22%20style%3D%22edgeStyle%3DorthogonalEdgeStyle%3Bhtml%3D1%3BverticalAlign%3Dbottom%3BendArrow%3Dopen%3BendSize%3D8%3BstrokeColor%3D%23ff0000%3B%22%20edge%3D%221%22%20parent%3D%221%22%3E%3CmxGeometry%20relative%3D%221%22%20as%3D%22geometry%22%3E%3CmxPoint%20x%3D%22387.5%22%20y%3D%22630%22%20as%3D%22targetPoint%22%2F%3E%3CmxPoint%20x%3D%22387.5%22%20y%3D%22580%22%20as%3D%22sourcePoint%22%2F%3E%3C%2FmxGeometry%3E%3C%2FmxCell%3E%3C%2Froot%3E%3C%2FmxGraphModel%3E&lt;/span&gt;" style="text;html=1;align=center;verticalAlign=middle;resizable=0;points=[];autosize=1;" vertex="1" parent="1">
          <mxGeometry x="592" y="576" width="20" height="20" as="geometry" />
        </mxCell>
        <mxCell id="Ii1de1Pnvcmps4-ZAxfa-25" value="" style="edgeStyle=orthogonalEdgeStyle;html=1;verticalAlign=bottom;endArrow=open;endSize=8;strokeColor=#ff0000;exitX=0.5;exitY=1;exitDx=0;exitDy=0;" edge="1" parent="1" source="Ii1de1Pnvcmps4-ZAxfa-23">
          <mxGeometry relative="1" as="geometry">
            <mxPoint x="530" y="660" as="targetPoint" />
            <mxPoint x="397.5" y="590" as="sourcePoint" />
            <Array as="points">
              <mxPoint x="580" y="620" />
              <mxPoint x="530" y="620" />
            </Array>
          </mxGeometry>
        </mxCell>
        <mxCell id="Ii1de1Pnvcmps4-ZAxfa-26" value="" style="shape=line;html=1;strokeWidth=6;strokeColor=#ff0000;" vertex="1" parent="1">
          <mxGeometry x="400" y="660" width="200" height="10" as="geometry" />
        </mxCell>
        <mxCell id="Ii1de1Pnvcmps4-ZAxfa-28" value="" style="edgeStyle=orthogonalEdgeStyle;html=1;verticalAlign=bottom;endArrow=open;endSize=8;strokeColor=#ff0000;" edge="1" parent="1">
          <mxGeometry relative="1" as="geometry">
            <mxPoint x="490" y="770" as="targetPoint" />
            <mxPoint x="490" y="660" as="sourcePoint" />
            <Array as="points">
              <mxPoint x="490" y="730" />
              <mxPoint x="490" y="730" />
            </Array>
          </mxGeometry>
        </mxCell>
        <mxCell id="Ii1de1Pnvcmps4-ZAxfa-29" value="Back to Invoice Table" style="rounded=1;whiteSpace=wrap;html=1;arcSize=40;fontColor=#000000;fillColor=#ffffc0;strokeColor=#ff0000;" vertex="1" parent="1">
          <mxGeometry x="430" y="770" width="120" height="40" as="geometry" />
        </mxCell>
        <mxCell id="Ii1de1Pnvcmps4-ZAxfa-30" value="" style="edgeStyle=orthogonalEdgeStyle;html=1;verticalAlign=bottom;endArrow=open;endSize=8;strokeColor=#ff0000;" edge="1" source="Ii1de1Pnvcmps4-ZAxfa-29" parent="1">
          <mxGeometry relative="1" as="geometry">
            <mxPoint x="490" y="870" as="targetPoint" />
          </mxGeometry>
        </mxCell>
        <mxCell id="Ii1de1Pnvcmps4-ZAxfa-31" value="" style="ellipse;html=1;shape=endState;fillColor=#000000;strokeColor=#ff0000;" vertex="1" parent="1">
          <mxGeometry x="475" y="870" width="30" height="30" as="geometry" />
        </mxCell>
      </root>
    </mxGraphModel>
  </diagram>
</mxfile>
